<svg width="683" height="703" viewBox="0 0 683 703" fill="none" xmlns="http://www.w3.org/2000/svg">
<path d="M184 12.1333C148.534 19.7333 121.334 53.6 121.334 90C121.334 126.4 148.8 160.533 184 167.867L192.667 169.6L187.334 170.667C165.067 174.667 150.8 180 135.334 190.133C105.067 209.867 85.2003 243.333 81.8669 280L80.9336 290H201.334H321.734L320.8 280C316.934 236.667 291.067 200 251.6 181.2C242.134 176.8 223.734 171.333 217.867 171.333C210.134 171.333 210.534 169.467 218.8 167.733C247.734 161.867 273.067 136.4 279.334 106.667C285.067 79.4667 277.2 53.7333 257.467 33.8667C237.6 14 211.2 6.26665 184 12.1333Z" fill="#F700FF" stroke="#D900FF" stroke-width="20" stroke-linejoin="round"/>
<path d="M464 12.1333C428.534 19.7333 401.334 53.6 401.334 90C401.334 126.4 428.8 160.533 464 167.867L472.667 169.6L467.334 170.667C445.067 174.667 430.8 180 415.334 190.133C385.067 209.867 365.2 243.333 361.867 280L360.934 290H481.334H601.734L600.8 280C596.934 236.667 571.067 200 531.6 181.2C522.134 176.8 503.734 171.333 497.867 171.333C490.134 171.333 490.534 169.467 498.8 167.733C527.734 161.867 553.067 136.4 559.334 106.667C565.067 79.4667 557.2 53.7333 537.467 33.8667C517.6 14 491.2 6.26665 464 12.1333Z" fill="#07FFA4" stroke="#07E472" stroke-width="20" stroke-linejoin="round"/>
<path d="M61.334 355.2V380.4L161.201 450.267L261.201 520V606.4C261.334 688.133 261.467 692.8 263.734 692.133C264.934 691.733 300.801 679.733 343.334 665.6L420.667 639.733L421.067 579.867L421.467 520L521.467 450.267L621.334 380.533V355.333V330H341.334H61.334V355.2Z" fill="#FFBB00" stroke="#FFA600" stroke-width="20" stroke-linejoin="round"/>
</svg>
